<?xml version="1.0" encoding="UTF-8"?><svg
  id="color"
  xmlns="http://www.w3.org/2000/svg"
  viewBox="0 0 48 48"
>
  <defs>
    <style>
      .cls-1 {
        fill: #136a37;
      }
      .cls-1,
      .cls-2,
      .cls-3 {
        fill-rule: evenodd;
      }
      .cls-2 {
        fill: #1b81c3;
      }
      .cls-3 {
        fill: #9c2c22;
      }
    </style>
  </defs>
  <path
    class="cls-3"
    d="M16.63,31.53s2.42,2.96,2.87,7.23c-.01-3.09,.31-5.03-1.2-7.26-1.02,0-1.67,.03-1.67,.03Z"
  />
  <path
    class="cls-3"
    d="M34.55,3.32c-7.88-1.61-11.83,6.86-11.83,6.86-11.6-7.97-15.96-.97-16.53-.33C.12,19.08,8.59,25.97,8.57,26.03c0,.06,.66-1.68,.66-1.68,0,0-1.49-1.29-2.01-4.33-1.05-11.01,9.37-9.85,10.54-9.43,1.52,.56,2.9,1.24,5.28,2.73,3.97-7.37,9.17-4.64,10.81-3.97,13.95,8.1-4.82,26.16-6.92,28.43-2.1,2.28-4.31,4.48-6.88,7.1,15.08-10.07,21.24-18.48,23.23-24.88,3.58-13.54-7.46-16.41-8.74-16.7Z"
  />
  <path
    class="cls-1"
    d="M17.49,15.49c0,1.72-1.4,3.12-3.13,3.12s-3.12-1.4-3.12-3.12,1.4-3.12,3.12-3.12,3.13,1.4,3.13,3.12Z"
  />
  <path
    class="cls-2"
    d="M29.97,15.49c0,1.72-1.4,3.12-3.12,3.12s-3.12-1.4-3.12-3.12,1.4-3.12,3.12-3.12,3.12,1.4,3.12,3.12Z"
  />
  <path
    class="cls-1"
    d="M8.35,27.39c.75-.06,1.5-.02,2.26-.01,.11,0,.21,.03,.14,.16-.33,.68-.52,1.42-.9,2.08-.21,.55-.43,1.11-.64,1.66-.05,.13-.08,.21-.09,.26h10.4c0-.06-.04-.16-.1-.32-.45-1.17-.89-2.35-1.34-3.52-.09-.24-.08-.34,.23-.33,.63,.02,1.27,0,1.91,.01,.25,0,.29-.03,.19-.28-1.02-2.58-2.03-5.16-3.04-7.74-.08-.2-.2-.23-.37-.23-1.84,0-3.68,0-5.52,0-.21,0-.3,.07-.38,.27-.62,1.65-1.25,3.29-1.87,4.94-.26,.57-.69,1.65-.69,1.65,0,0-.24,.72-.42,1.11-.11,.25-.14,.31,.22,.29Z"
  />
  <path
    class="cls-2"
    d="M21.03,27.37h1.87c.42,0,.42,0,.26,.4-.48,1.19-.97,2.37-1.46,3.55-.05,.1-.06,.18-.05,.23h3.94c.12-.08,.2-.21,.27-.41,.32-.9,.71-1.78,1.07-2.69,.06,.04,.11,.05,.12,.07,.43,.94,.87,1.88,1.26,2.84,.03,.07,.06,.13,.1,.19h3.62c.02-.06,0-.16-.05-.27-.15-.39-.3-.78-.45-1.17-.31-.82-.62-1.65-.94-2.47-.08-.22-.05-.29,.2-.28,.66,.02,1.32,0,1.98,.01,.21,0,.29-.03,.19-.26-.13-.28-.23-.58-.35-.88-.9-2.28-1.81-4.57-2.7-6.86-.07-.19-.18-.24-.37-.24-1.85,0-3.7,0-5.55,0-.19,0-.3,.06-.37,.25-.23,.66-.49,1.32-.74,1.98-.71,1.87-1.42,3.75-2.13,5.63-.14,.36-.13,.36,.27,.36Z"
  />
</svg>
